<?xml version="1.0" standalone="no"?><!DOCTYPE svg PUBLIC "-//W3C//DTD SVG 1.1//EN" "http://www.w3.org/Graphics/SVG/1.1/DTD/svg11.dtd"><svg t="1561609625860" class="icon" viewBox="0 0 1024 1024" version="1.1" xmlns="http://www.w3.org/2000/svg" p-id="985" xmlns:xlink="http://www.w3.org/1999/xlink" width="200" height="200"><defs><style type="text/css"></style></defs><path d="M853.333333 955.733333H170.666667c-66.030933 0-102.4-36.369067-102.4-102.4V170.666667c0-66.030933 36.369067-102.4 102.4-102.4h682.666666c66.030933 0 102.4 36.369067 102.4 102.4v682.666666c0 66.030933-36.369067 102.4-102.4 102.4zM102.4 699.733333v153.6c0 47.223467 21.0432 68.266667 68.266667 68.266667h682.666666c47.223467 0 68.266667-21.0432 68.266667-68.266667v-153.6H699.733333v68.266667a17.066667 17.066667 0 0 1-17.066666 17.066667H341.333333a17.066667 17.066667 0 0 1-17.066666-17.066667v-68.266667H102.4z m256 51.2h307.2v-68.266666a17.066667 17.066667 0 0 1 17.066667-17.066667h238.933333V170.666667c0-47.223467-21.0432-68.266667-68.266667-68.266667H170.666667c-47.223467 0-68.266667 21.0432-68.266667 68.266667v494.933333h238.933333a17.066667 17.066667 0 0 1 17.066667 17.066667v68.266666z" p-id="986"></path></svg>