<?xml version="1.0" standalone="no"?><!DOCTYPE svg PUBLIC "-//W3C//DTD SVG 1.1//EN" "http://www.w3.org/Graphics/SVG/1.1/DTD/svg11.dtd"><svg t="1561609704496" class="icon" viewBox="0 0 1024 1024" version="1.1" xmlns="http://www.w3.org/2000/svg" p-id="1103" xmlns:xlink="http://www.w3.org/1999/xlink" width="200" height="200"><defs><style type="text/css"></style></defs><path d="M853.333333 956.586667H170.666667c-66.030933 0-102.4-36.369067-102.4-102.4V343.04c0-60.1088 30.122667-95.6416 85.333333-101.5296V85.333333a17.066667 17.066667 0 0 1 17.066667-17.066666h682.666666a17.066667 17.066667 0 0 1 17.066667 17.066666v239.786667h68.266667a17.066667 17.066667 0 0 1 17.066666 17.066667v512c0 66.030933-36.369067 102.4-102.4 102.4zM170.666667 274.773333c-47.223467 0-68.266667 21.060267-68.266667 68.266667v511.146667c0 47.223467 21.0432 68.266667 68.266667 68.266666h682.666666c47.223467 0 68.266667-21.0432 68.266667-68.266666v-494.933334H512a17.066667 17.066667 0 0 1-17.066667-17.066666V274.773333H170.666667z m358.4 50.346667h307.2V102.4H187.733333v138.24h324.266667a17.066667 17.066667 0 0 1 17.066667 17.066667v67.413333z" p-id="1104"></path></svg>