<?xml version="1.0" standalone="no"?><!DOCTYPE svg PUBLIC "-//W3C//DTD SVG 1.1//EN" "http://www.w3.org/Graphics/SVG/1.1/DTD/svg11.dtd"><svg t="1562053781306" class="icon" viewBox="0 0 1026 1024" version="1.1" xmlns="http://www.w3.org/2000/svg" p-id="2013" xmlns:xlink="http://www.w3.org/1999/xlink" width="200.390625" height="200"><defs><style type="text/css"></style></defs><path d="M768 880c-86.4 60.8-192 89.6-307.2 76.8C246.4 931.2 80 755.2 64 540.8 48 262.4 288 32 569.6 67.2c195.2 25.6 352 176 384 368 19.2 115.2-6.4 224-60.8 310.4-9.6 12.8-6.4 28.8 3.2 41.6 16 16 38.4 12.8 51.2-6.4 64-105.6 96-233.6 70.4-368C976 211.2 812.8 48 611.2 9.6c-348.8-64-649.6 224-604.8 569.6 28.8 230.4 217.6 416 451.2 441.6 131.2 12.8 252.8-19.2 348.8-89.6 16-12.8 19.2-35.2 6.4-48-16-12.8-32-12.8-44.8-3.2z" p-id="2014"></path><path d="M438.4 758.4c-16 0-28.8-12.8-28.8-28.8V294.4c0-16 12.8-28.8 28.8-28.8s28.8 12.8 28.8 28.8v435.2c0 16-12.8 28.8-28.8 28.8z" p-id="2015"></path><path d="M675.2 531.2c-9.6 9.6-28.8 9.6-38.4 0L419.2 313.6c-9.6-9.6-9.6-28.8 0-38.4 9.6-9.6 28.8-9.6 38.4 0l217.6 217.6c9.6 9.6 9.6 28.8 0 38.4z" p-id="2016"></path><path d="M419.2 748.8c-9.6-9.6-9.6-28.8 0-38.4l217.6-217.6c9.6-9.6 28.8-9.6 38.4 0 9.6 9.6 9.6 28.8 0 38.4L457.6 748.8c-9.6 9.6-28.8 9.6-38.4 0z" p-id="2017"></path></svg>