<?xml version="1.0" standalone="no"?><!DOCTYPE svg PUBLIC "-//W3C//DTD SVG 1.1//EN" "http://www.w3.org/Graphics/SVG/1.1/DTD/svg11.dtd"><svg t="1562036087229" class="icon" viewBox="0 0 1024 1024" version="1.1" xmlns="http://www.w3.org/2000/svg" p-id="2818" xmlns:xlink="http://www.w3.org/1999/xlink" width="200" height="200"><defs><style type="text/css"></style></defs><path d="M512 11.234c-274.205 0-496.508 222.348-496.508 496.53 0 274.228 222.303 496.486 496.508 496.486 274.25 0 496.508-222.258 496.508-496.485 0-274.205-222.258-496.53-496.508-496.53z m0 928.352c-238.503 0-431.844-193.296-431.844-431.821C80.156 269.262 273.497 75.876 512 75.876c238.48 0 431.866 193.364 431.866 431.889S750.48 939.586 512 939.586z m218.214-598.65l-57.61-57.788-162.132 161.57-164.087-159.391-56.868 58.553 163.166 158.492-172.76 172.199 57.587 57.766L511.214 559.24l175.995 170.94 56.913-58.53-175.075-170.087z" p-id="2819"></path></svg>